<svg xmlns="http://www.w3.org/2000/svg" xmlns:xlink="http://www.w3.org/1999/xlink" width="309" height="324"><defs><linearGradient id="a" x1="69.887%" x2="-2.918%" y1="74.075%" y2="0%"><stop offset="0%" stop-color="#FFF" stop-opacity="0"/><stop offset="100%" stop-color="#A4B0D5"/></linearGradient><linearGradient id="f" x1="26.21%" x2="15.979%" y1="85.832%" y2="56.527%"><stop offset="0%" stop-color="#C4C8DE" stop-opacity="0"/><stop offset="100%" stop-color="#6B798E"/></linearGradient><linearGradient id="j" x1="50%" x2="36.307%" y1="0%" y2="90.052%"><stop offset="0%" stop-color="#F6F8FA"/><stop offset="100%" stop-color="#E9EDF3"/></linearGradient><linearGradient id="k" x1="46.994%" x2="38.414%" y1="5.814%" y2="92.609%"><stop offset="0%" stop-color="#7B86A4"/><stop offset="100%" stop-color="#454E6B"/></linearGradient><linearGradient id="m" x1="42.841%" x2="50%" y1="0%" y2="133.543%"><stop offset="0%" stop-color="#DFE2EA"/><stop offset="100%" stop-color="#CBD0DE"/></linearGradient><path id="b" d="M17 3h216.57a2 2 0 0 1 1.586.783L342.944 144.28a2 2 0 0 1 .413 1.217V322.89H111.5l-95.938-99.31a2 2 0 0 1-.562-1.39V5a2 2 0 0 1 2-2z"/><pattern id="c" width="512" height="512" x="-497" y="-509" patternUnits="userSpaceOnUse"><use xlink:href="#a"/></pattern><rect id="e" width="220" height="220" x="12" rx="4"/><filter id="d" width="126.8%" height="126.8%" x="-8.9%" y="-7%" filterUnits="objectBoundingBox"><feOffset dx="10" dy="14" in="SourceAlpha" result="shadowOffsetOuter1"/><feGaussianBlur in="shadowOffsetOuter1" result="shadowBlurOuter1" stdDeviation="7.5"/><feColorMatrix in="shadowBlurOuter1" values="0 0 0 0 0.230538538 0 0 0 0 0.370571982 0 0 0 0 0.482993197 0 0 0 0.0403645833 0"/></filter><path id="g" d="M29 15h187a2 2 0 0 1 2 2v188a2 2 0 0 1-2 2H29a2 2 0 0 1-2-2V17a2 2 0 0 1 2-2z"/><pattern id="h" width="512" height="512" x="-485" y="-497" patternUnits="userSpaceOnUse"><use xlink:href="#b"/></pattern><path id="i" d="M20 0h193v145.066l-3.973-7.038-3.66 12.73-5.797-6.235-5.01 2.543-14.85-2.543L176.964 193l-6.358.107-4.634-1.65L156.75 193l-6.365-2.602L140.77 193l-5-60.01-5.328 60.01-8.084-1.599-7.5 2.373L105.02 191l-15.083 2-4.447-3.069L80.746 193H70.272V60c-2.672 38.654-6.525 62.984-11.56 72.99-3.228 6.416-8.428 8.157-11.83 9.646-4.56 1.996-8.005 2.43-19.365 2.43-13.225 0-22.12-7.012-26.684-21.037 5.096-3.554 9.24-8.946 12.429-16.174C16.45 100.626 18.697 84.675 20 60V0z"/></defs><g fill="none" fill-rule="evenodd"><g transform="translate(0 1)"><use fill="url(#a)" xlink:href="#b"/><use fill="url(#c)" fill-opacity=".031" xlink:href="#b"/></g><g transform="translate(0 1)"><use fill="#000" filter="url(#d)" xlink:href="#e"/><use fill="#FFF" xlink:href="#e"/></g><g opacity=".487" transform="translate(0 1)"><use fill="url(#f)" xlink:href="#g"/><use fill="url(#h)" fill-opacity=".078" xlink:href="#g" style="mix-blend-mode:luminosity"/></g><g transform="translate(6 15)"><mask id="l" fill="#fff"><use xlink:href="#i"/></mask><use fill="url(#j)" xlink:href="#i"/><text fill="url(#k)" font-family="DINCondensed-Bold, DIN Condensed" font-size="93" font-style="condensed" font-weight="bold" letter-spacing="16.043" mask="url(#l)" opacity=".2"><tspan x="47.042" y="98">404</tspan></text></g><path fill="url(#m)" d="M.936 129.557h51.327c2.589 12.975 6.798 18.712 12.627 17.212-3.795 7.72-11.708 13.727-28.537 13.727s-23.798-6.424-27.963-10.918c-2.777-2.996-5.261-9.67-7.454-20.021z" transform="translate(0 1)"/></g></svg>